<svg xmlns="http://www.w3.org/2000/svg" version="1.1" xmlns:xlink="http://www.w3.org/1999/xlink" width="512" height="512" x="0" y="0" viewBox="0 0 64 64" style="enable-background:new 0 0 512 512" xml:space="preserve" class=""><g><path fill="#db2b4240" d="M32 64C14.36 64 0 49.64 0 32 0 14.35 14.36 0 32 0s32 14.36 32 32-14.36 32-32 32z" opacity="1" data-original="#db2b4240"></path><path fill="#49db2b" d="M32 64C14.36 64 0 49.64 0 32 0 14.35 14.36 0 32 0s32 14.36 32 32-14.36 32-32 32z" opacity="1" data-original="#db2b42" class=""></path><path fill="#ffffff" d="M34 15.49h-4V30H15.49v4H30v14.51h4V34h14.51v-4H34z" opacity="1" data-original="#ffffff"></path></g></svg>